<svg xmlns="http://www.w3.org/2000/svg" width="500" height="400" x="0" y="0" fill="white"><g transform="translate(50,30 )"><g class="axis" stroke="rgb(0,0,0)" stroke-width="0.2" fill="none" font-size="10" font-family="sans-serif" text-anchor="middle"><path class="domain" stroke="currentColor" d="M0.5,340V0.5H420.5V340"></path><g class="tick" opacity="1" transform="translate(42.5,0)"><line stroke="currentColor" y2="340"></line><text fill="currentColor" y="343" dy="0.71em">1</text></g><g class="tick" opacity="1" transform="translate(126.5,0)"><line stroke="currentColor" y2="340"></line><text fill="currentColor" y="343" dy="0.71em">2</text></g><g class="tick" opacity="1" transform="translate(210.5,0)"><line stroke="currentColor" y2="340"></line><text fill="currentColor" y="343" dy="0.71em">3</text></g><g class="tick" opacity="1" transform="translate(294.5,0)"><line stroke="currentColor" y2="340"></line><text fill="currentColor" y="343" dy="0.71em">4</text></g><g class="tick" opacity="1" transform="translate(378.5,0)"><line stroke="currentColor" y2="340"></line><text fill="currentColor" y="343" dy="0.71em">5</text></g><text x="210" y="365" fill="rgb(0,0,0)" style="text-anchor: middle;">ID - Index of Difficulty</text></g><g class="axis" stroke="rgb(0,0,0)" stroke-width="0.2" fill="none" font-size="10" font-family="sans-serif" text-anchor="end"><path class="domain" stroke="currentColor" d="M420,0.5H0.5V340.5H420"></path><g class="tick" opacity="1" transform="translate(0,0.5)"><line stroke="currentColor" x2="420"></line><text fill="currentColor" x="-3" dy="0.32em">4,000</text></g><g class="tick" opacity="1" transform="translate(0,43)"><line stroke="currentColor" x2="420"></line><text fill="currentColor" x="-3" dy="0.32em">3,500</text></g><g class="tick" opacity="1" transform="translate(0,85.5)"><line stroke="currentColor" x2="420"></line><text fill="currentColor" x="-3" dy="0.32em">3,000</text></g><g class="tick" opacity="1" transform="translate(0,128)"><line stroke="currentColor" x2="420"></line><text fill="currentColor" x="-3" dy="0.32em">2,500</text></g><g class="tick" opacity="1" transform="translate(0,170.5)"><line stroke="currentColor" x2="420"></line><text fill="currentColor" x="-3" dy="0.32em">2,000</text></g><g class="tick" opacity="1" transform="translate(0,213)"><line stroke="currentColor" x2="420"></line><text fill="currentColor" x="-3" dy="0.32em">1,500</text></g><g class="tick" opacity="1" transform="translate(0,255.5)"><line stroke="currentColor" x2="420"></line><text fill="currentColor" x="-3" dy="0.32em">1,000</text></g><g class="tick" opacity="1" transform="translate(0,298)"><line stroke="currentColor" x2="420"></line><text fill="currentColor" x="-3" dy="0.32em">500</text></g><g class="tick" opacity="1" transform="translate(0,340.5)"><line stroke="currentColor" x2="420"></line><text fill="currentColor" x="-3" dy="0.32em">0</text></g><text fill="rgb(0,0,0)" x="-170" y="-35" transform="rotate(-90, 0, 0)" style="text-anchor: middle;">time in ms</text></g><circle class="cat0" style="fill: rgb(20,20,250); opacity: 0.8;" cx="246.90424241714348" cy="171.445" r="3"></circle><circle class="cat0" style="fill: rgb(20,20,250); opacity: 0.8;" cx="246.8765845848995" cy="91.88499999999999" r="3"></circle><circle class="cat0" style="fill: rgb(20,20,250); opacity: 0.8;" cx="246.92019282669102" cy="168.64" r="3"></circle><circle class="cat0" style="fill: rgb(20,20,250); opacity: 0.8;" cx="246.88899679142224" cy="209.52499999999998" r="3"></circle><circle class="cat0" style="fill: rgb(20,20,250); opacity: 0.8;" cx="246.92834355479783" cy="204.68" r="3"></circle><circle class="cat0" style="fill: rgb(20,20,250); opacity: 0.8;" cx="246.88899679142224" cy="200.68499999999997" r="3"></circle><circle class="cat0" style="fill: rgb(20,20,250); opacity: 0.8;" cx="246.92019282669102" cy="148.24" r="3"></circle><circle class="cat0" style="fill: rgb(20,20,250); opacity: 0.8;" cx="246.8765845848995" cy="220.405" r="3"></circle><circle class="cat0" style="fill: rgb(20,20,250); opacity: 0.8;" cx="246.90424241714348" cy="199.24000000000004" r="3"></circle><circle class="cat0" style="fill: rgb(20,20,250); opacity: 0.8;" cx="325.1856788942051" cy="172.125" r="3"></circle><circle class="cat0" style="fill: rgb(20,20,250); opacity: 0.8;" cx="325.1566844963247" cy="136" r="3"></circle><circle class="cat0" style="fill: rgb(20,20,250); opacity: 0.8;" cx="325.2023999624355" cy="136.765" r="3"></circle><circle class="cat0" style="fill: rgb(20,20,250); opacity: 0.8;" cx="325.1696965626817" cy="206.80499999999998" r="3"></circle><circle class="cat0" style="fill: rgb(20,20,250); opacity: 0.8;" cx="325.21094445940486" cy="129.965" r="3"></circle><circle class="cat0" style="fill: rgb(20,20,250); opacity: 0.8;" cx="325.1696965626817" cy="111.51999999999998" r="3"></circle><circle class="cat0" style="fill: rgb(20,20,250); opacity: 0.8;" cx="325.2023999624355" cy="104.72000000000001" r="3"></circle><circle class="cat0" style="fill: rgb(20,20,250); opacity: 0.8;" cx="325.1566844963247" cy="149.005" r="3"></circle><circle class="cat0" style="fill: rgb(20,20,250); opacity: 0.8;" cx="325.1856788942051" cy="198.56000000000003" r="3"></circle><circle class="cat0" style="fill: rgb(20,20,250); opacity: 0.8;" cx="108.49350170965465" cy="230.60500000000002" r="3"></circle><circle class="cat0" style="fill: rgb(20,20,250); opacity: 0.8;" cx="108.55234037424384" cy="259.08" r="3"></circle><circle class="cat0" style="fill: rgb(20,20,250); opacity: 0.8;" cx="108.64656100353811" cy="244.88500000000002" r="3"></circle><circle class="cat0" style="fill: rgb(20,20,250); opacity: 0.8;" cx="108.40678374206749" cy="252.28" r="3"></circle><circle class="cat0" style="fill: rgb(20,20,250); opacity: 0.8;" cx="108.07409439882775" cy="268.685" r="3"></circle><circle class="cat0" style="fill: rgb(20,20,250); opacity: 0.8;" cx="108.40678374206749" cy="268.6" r="3"></circle><circle class="cat0" style="fill: rgb(20,20,250); opacity: 0.8;" cx="108.64656100353811" cy="208.845" r="3"></circle><circle class="cat0" style="fill: rgb(20,20,250); opacity: 0.8;" cx="108.55234037424384" cy="256.36" r="3"></circle><circle class="cat0" style="fill: rgb(20,20,250); opacity: 0.8;" cx="108.49350170965465" cy="240.805" r="3"></circle><circle class="cat0" style="fill: rgb(20,20,250); opacity: 0.8;" cx="173.59040583572587" cy="244.205" r="3"></circle><circle class="cat0" style="fill: rgb(20,20,250); opacity: 0.8;" cx="173.5650826667235" cy="202.045" r="3"></circle><circle class="cat0" style="fill: rgb(20,20,250); opacity: 0.8;" cx="173.60501005514448" cy="201.95999999999998" r="3"></circle><circle class="cat0" style="fill: rgb(20,20,250); opacity: 0.8;" cx="173.57644706910236" cy="226.525" r="3"></circle><circle class="cat0" style="fill: rgb(20,20,250); opacity: 0.8;" cx="173.6124729369153" cy="218.28" r="3"></circle><circle class="cat0" style="fill: rgb(20,20,250); opacity: 0.8;" cx="173.57644706910236" cy="226.525" r="3"></circle><circle class="cat0" style="fill: rgb(20,20,250); opacity: 0.8;" cx="173.60501005514448" cy="201.28000000000003" r="3"></circle><circle class="cat0" style="fill: rgb(20,20,250); opacity: 0.8;" cx="173.5650826667235" cy="151.72500000000002" r="3"></circle><circle class="cat0" style="fill: rgb(20,20,250); opacity: 0.8;" cx="173.59040583572587" cy="225.845" r="3"></circle><circle class="cat0" style="fill: rgb(20,20,250); opacity: 0.8;" cx="173.59040583572587" cy="150.27999999999997" r="3"></circle><circle class="cat0" style="fill: rgb(20,20,250); opacity: 0.8;" cx="173.65917406744956" cy="232.645" r="3"></circle><circle class="cat0" style="fill: rgb(20,20,250); opacity: 0.8;" cx="173.76928356612848" cy="246.16" r="3"></circle><circle class="cat0" style="fill: rgb(20,20,250); opacity: 0.8;" cx="173.4890431353117" cy="222.445" r="3"></circle><circle class="cat0" style="fill: rgb(20,20,250); opacity: 0.8;" cx="173.10005617585625" cy="208.165" r="3"></circle><circle class="cat0" style="fill: rgb(20,20,250); opacity: 0.8;" cx="173.4890431353117" cy="223.125" r="3"></circle><circle class="cat0" style="fill: rgb(20,20,250); opacity: 0.8;" cx="173.76928356612848" cy="163.88" r="3"></circle><circle class="cat0" style="fill: rgb(20,20,250); opacity: 0.8;" cx="173.65917406744956" cy="224.39999999999998" r="3"></circle><circle class="cat0" style="fill: rgb(20,20,250); opacity: 0.8;" cx="173.59040583572587" cy="208.76" r="3"></circle><circle class="cat0" style="fill: rgb(20,20,250); opacity: 0.8;" cx="246.90424241714348" cy="100.64000000000001" r="3"></circle><circle class="cat0" style="fill: rgb(20,20,250); opacity: 0.8;" cx="246.97934803133708" cy="185.725" r="3"></circle><circle class="cat0" style="fill: rgb(20,20,250); opacity: 0.8;" cx="247.09959656942127" cy="204" r="3"></circle><circle class="cat0" style="fill: rgb(20,20,250); opacity: 0.8;" cx="246.7935314048165" cy="164.56" r="3"></circle><circle class="cat0" style="fill: rgb(20,20,250); opacity: 0.8;" cx="246.36859021119295" cy="214.88" r="3"></circle><circle class="cat0" style="fill: rgb(20,20,250); opacity: 0.8;" cx="246.7935314048165" cy="150.365" r="3"></circle><circle class="cat0" style="fill: rgb(20,20,250); opacity: 0.8;" cx="247.09959656942127" cy="124.52499999999999" r="3"></circle><circle class="cat0" style="fill: rgb(20,20,250); opacity: 0.8;" cx="246.97934803133708" cy="200.60000000000002" r="3"></circle><circle class="cat0" style="fill: rgb(20,20,250); opacity: 0.8;" cx="246.90424241714348" cy="168.045" r="3"></circle><circle class="cat0" style="fill: rgb(20,20,250); opacity: 0.8;" cx="173.59040583572587" cy="225.165" r="3"></circle><circle class="cat0" style="fill: rgb(20,20,250); opacity: 0.8;" cx="173.21521138090807" cy="204.765" r="3"></circle><circle class="cat0" style="fill: rgb(20,20,250); opacity: 0.8;" cx="173.04763306709205" cy="136" r="3"></circle><circle class="cat0" style="fill: rgb(20,20,250); opacity: 0.8;" cx="173.1838293255059" cy="175.44" r="3"></circle><circle class="cat0" style="fill: rgb(20,20,250); opacity: 0.8;" cx="173.10005617585625" cy="163.96499999999997" r="3"></circle><circle class="cat0" style="fill: rgb(20,20,250); opacity: 0.8;" cx="173.1838293255059" cy="174.165" r="3"></circle><circle class="cat0" style="fill: rgb(20,20,250); opacity: 0.8;" cx="173.04763306709205" cy="208.07999999999998" r="3"></circle><circle class="cat0" style="fill: rgb(20,20,250); opacity: 0.8;" cx="173.21521138090807" cy="189.805" r="3"></circle><circle class="cat0" style="fill: rgb(20,20,250); opacity: 0.8;" cx="173.59040583572587" cy="197.88000000000002" r="3"></circle><circle class="cat0" style="fill: rgb(20,20,250); opacity: 0.8;" cx="108.49350170965465" cy="241.39999999999998" r="3"></circle><circle class="cat0" style="fill: rgb(20,20,250); opacity: 0.8;" cx="108.17256722231868" cy="163.96499999999997" r="3"></circle><circle class="cat0" style="fill: rgb(20,20,250); opacity: 0.8;" cx="108.02927024732918" cy="191.84499999999997" r="3"></circle><circle class="cat0" style="fill: rgb(20,20,250); opacity: 0.8;" cx="108.14573009993447" cy="255.765" r="3"></circle><circle class="cat0" style="fill: rgb(20,20,250); opacity: 0.8;" cx="108.07409439882775" cy="252.96" r="3"></circle><circle class="cat0" style="fill: rgb(20,20,250); opacity: 0.8;" cx="108.14573009993447" cy="263.925" r="3"></circle><circle class="cat0" style="fill: rgb(20,20,250); opacity: 0.8;" cx="108.02927024732918" cy="251.6" r="3"></circle><circle class="cat0" style="fill: rgb(20,20,250); opacity: 0.8;" cx="108.17256722231868" cy="232.645" r="3"></circle><circle class="cat0" style="fill: rgb(20,20,250); opacity: 0.8;" cx="108.49350170965465" cy="247.60500000000002" r="3"></circle><circle class="cat0" style="fill: rgb(20,20,250); opacity: 0.8;" cx="55.24493306806243" cy="244.205" r="3"></circle><circle class="cat0" style="fill: rgb(20,20,250); opacity: 0.8;" cx="54.995999298955304" cy="261.12" r="3"></circle><circle class="cat0" style="fill: rgb(20,20,250); opacity: 0.8;" cx="54.88489836651193" cy="268.005" r="3"></circle><circle class="cat0" style="fill: rgb(20,20,250); opacity: 0.8;" cx="54.97518970969248" cy="291.71999999999997" r="3"></circle><circle class="cat0" style="fill: rgb(20,20,250); opacity: 0.8;" cx="54.919648230638984" cy="320.96" r="3"></circle><circle class="cat0" style="fill: rgb(20,20,250); opacity: 0.8;" cx="54.97518970969248" cy="229.15999999999997" r="3"></circle><circle class="cat0" style="fill: rgb(20,20,250); opacity: 0.8;" cx="54.88489836651193" cy="266.56" r="3"></circle><circle class="cat0" style="fill: rgb(20,20,250); opacity: 0.8;" cx="54.995999298955304" cy="264.605" r="3"></circle><circle class="cat0" style="fill: rgb(20,20,250); opacity: 0.8;" cx="55.24493306806243" cy="270.725" r="3"></circle></g></svg>