<svg xmlns="http://www.w3.org/2000/svg" width="500" height="400" x="0" y="0" fill="white"><g transform="translate(50,30 )"><g class="axis" stroke="rgb(0,0,0)" stroke-width="0.2" fill="none" font-size="10" font-family="sans-serif" text-anchor="middle"><path class="domain" stroke="currentColor" d="M0.5,340V0.5H420.5V340"></path><g class="tick" opacity="1" transform="translate(0.5,0)"><line stroke="currentColor" y2="340"></line><text fill="currentColor" y="343" dy="0.71em">0.5</text></g><g class="tick" opacity="1" transform="translate(35.5,0)"><line stroke="currentColor" y2="340"></line><text fill="currentColor" y="343" dy="0.71em">1.0</text></g><g class="tick" opacity="1" transform="translate(70.5,0)"><line stroke="currentColor" y2="340"></line><text fill="currentColor" y="343" dy="0.71em">1.5</text></g><g class="tick" opacity="1" transform="translate(105.5,0)"><line stroke="currentColor" y2="340"></line><text fill="currentColor" y="343" dy="0.71em">2.0</text></g><g class="tick" opacity="1" transform="translate(140.5,0)"><line stroke="currentColor" y2="340"></line><text fill="currentColor" y="343" dy="0.71em">2.5</text></g><g class="tick" opacity="1" transform="translate(175.5,0)"><line stroke="currentColor" y2="340"></line><text fill="currentColor" y="343" dy="0.71em">3.0</text></g><g class="tick" opacity="1" transform="translate(210.5,0)"><line stroke="currentColor" y2="340"></line><text fill="currentColor" y="343" dy="0.71em">3.5</text></g><g class="tick" opacity="1" transform="translate(245.50000000000003,0)"><line stroke="currentColor" y2="340"></line><text fill="currentColor" y="343" dy="0.71em">4.0</text></g><g class="tick" opacity="1" transform="translate(280.5,0)"><line stroke="currentColor" y2="340"></line><text fill="currentColor" y="343" dy="0.71em">4.5</text></g><g class="tick" opacity="1" transform="translate(315.5,0)"><line stroke="currentColor" y2="340"></line><text fill="currentColor" y="343" dy="0.71em">5.0</text></g><g class="tick" opacity="1" transform="translate(350.5,0)"><line stroke="currentColor" y2="340"></line><text fill="currentColor" y="343" dy="0.71em">5.5</text></g><g class="tick" opacity="1" transform="translate(385.5,0)"><line stroke="currentColor" y2="340"></line><text fill="currentColor" y="343" dy="0.71em">6.0</text></g><g class="tick" opacity="1" transform="translate(420.5,0)"><line stroke="currentColor" y2="340"></line><text fill="currentColor" y="343" dy="0.71em">6.5</text></g><text x="210" y="365" fill="rgb(0,0,0)" style="text-anchor: middle;">IDeff - Effective Index of Difficulty</text></g><g class="axis" stroke="rgb(0,0,0)" stroke-width="0.2" fill="none" font-size="10" font-family="sans-serif" text-anchor="end"><path class="domain" stroke="currentColor" d="M420,0.5H0.5V340.5H420"></path><g class="tick" opacity="1" transform="translate(0,0.5)"><line stroke="currentColor" x2="420"></line><text fill="currentColor" x="-3" dy="0.32em">4,000</text></g><g class="tick" opacity="1" transform="translate(0,43)"><line stroke="currentColor" x2="420"></line><text fill="currentColor" x="-3" dy="0.32em">3,500</text></g><g class="tick" opacity="1" transform="translate(0,85.5)"><line stroke="currentColor" x2="420"></line><text fill="currentColor" x="-3" dy="0.32em">3,000</text></g><g class="tick" opacity="1" transform="translate(0,128)"><line stroke="currentColor" x2="420"></line><text fill="currentColor" x="-3" dy="0.32em">2,500</text></g><g class="tick" opacity="1" transform="translate(0,170.5)"><line stroke="currentColor" x2="420"></line><text fill="currentColor" x="-3" dy="0.32em">2,000</text></g><g class="tick" opacity="1" transform="translate(0,213)"><line stroke="currentColor" x2="420"></line><text fill="currentColor" x="-3" dy="0.32em">1,500</text></g><g class="tick" opacity="1" transform="translate(0,255.5)"><line stroke="currentColor" x2="420"></line><text fill="currentColor" x="-3" dy="0.32em">1,000</text></g><g class="tick" opacity="1" transform="translate(0,298)"><line stroke="currentColor" x2="420"></line><text fill="currentColor" x="-3" dy="0.32em">500</text></g><g class="tick" opacity="1" transform="translate(0,340.5)"><line stroke="currentColor" x2="420"></line><text fill="currentColor" x="-3" dy="0.32em">0</text></g><text fill="rgb(0,0,0)" x="-170" y="-35" transform="rotate(-90, 0, 0)" style="text-anchor: middle;">time in ms</text></g><circle class="cat0" cx="214.58206158005424" cy="171.445" style="opacity: 0.8; fill: #1f77b4;" r="3"></circle><circle class="cat0" cx="214.58206158005424" cy="91.88499999999999" style="opacity: 0.8; fill: #1f77b4;" r="3"></circle><circle class="cat0" cx="214.58206158005424" cy="168.64" style="opacity: 0.8; fill: #1f77b4;" r="3"></circle><circle class="cat0" cx="214.58206158005424" cy="209.52499999999998" style="opacity: 0.8; fill: #1f77b4;" r="3"></circle><circle class="cat0" cx="214.58206158005424" cy="204.68" style="opacity: 0.8; fill: #1f77b4;" r="3"></circle><circle class="cat0" cx="214.58206158005424" cy="200.68499999999997" style="opacity: 0.8; fill: #1f77b4;" r="3"></circle><circle class="cat0" cx="214.58206158005424" cy="148.24" style="opacity: 0.8; fill: #1f77b4;" r="3"></circle><circle class="cat0" cx="214.58206158005424" cy="220.405" style="opacity: 0.8; fill: #1f77b4;" r="3"></circle><circle class="cat0" cx="214.58206158005424" cy="199.24000000000004" style="opacity: 0.8; fill: #1f77b4;" r="3"></circle><circle class="cat0" cx="283.5898403424995" cy="172.125" style="opacity: 0.8; fill: #ff7f0e;" r="3"></circle><circle class="cat0" cx="283.5898403424995" cy="136" style="opacity: 0.8; fill: #ff7f0e;" r="3"></circle><circle class="cat0" cx="283.5898403424995" cy="136.765" style="opacity: 0.8; fill: #ff7f0e;" r="3"></circle><circle class="cat0" cx="283.5898403424995" cy="206.80499999999998" style="opacity: 0.8; fill: #ff7f0e;" r="3"></circle><circle class="cat0" cx="283.5898403424995" cy="129.965" style="opacity: 0.8; fill: #ff7f0e;" r="3"></circle><circle class="cat0" cx="283.5898403424995" cy="111.51999999999998" style="opacity: 0.8; fill: #ff7f0e;" r="3"></circle><circle class="cat0" cx="283.5898403424995" cy="104.72000000000001" style="opacity: 0.8; fill: #ff7f0e;" r="3"></circle><circle class="cat0" cx="283.5898403424995" cy="149.005" style="opacity: 0.8; fill: #ff7f0e;" r="3"></circle><circle class="cat0" cx="283.5898403424995" cy="198.56000000000003" style="opacity: 0.8; fill: #ff7f0e;" r="3"></circle><circle class="cat0" cx="93.2615108957416" cy="230.60500000000002" style="opacity: 0.8; fill: #2ca02c;" r="3"></circle><circle class="cat0" cx="93.2615108957416" cy="259.08" style="opacity: 0.8; fill: #2ca02c;" r="3"></circle><circle class="cat0" cx="93.2615108957416" cy="244.88500000000002" style="opacity: 0.8; fill: #2ca02c;" r="3"></circle><circle class="cat0" cx="93.2615108957416" cy="252.28" style="opacity: 0.8; fill: #2ca02c;" r="3"></circle><circle class="cat0" cx="93.2615108957416" cy="268.685" style="opacity: 0.8; fill: #2ca02c;" r="3"></circle><circle class="cat0" cx="93.2615108957416" cy="268.6" style="opacity: 0.8; fill: #2ca02c;" r="3"></circle><circle class="cat0" cx="93.2615108957416" cy="208.845" style="opacity: 0.8; fill: #2ca02c;" r="3"></circle><circle class="cat0" cx="93.2615108957416" cy="256.36" style="opacity: 0.8; fill: #2ca02c;" r="3"></circle><circle class="cat0" cx="93.2615108957416" cy="240.805" style="opacity: 0.8; fill: #2ca02c;" r="3"></circle><circle class="cat0" cx="129.32760286012697" cy="244.205" style="opacity: 0.8; fill: #d62728;" r="3"></circle><circle class="cat0" cx="129.32760286012697" cy="202.045" style="opacity: 0.8; fill: #d62728;" r="3"></circle><circle class="cat0" cx="129.32760286012697" cy="201.95999999999998" style="opacity: 0.8; fill: #d62728;" r="3"></circle><circle class="cat0" cx="129.32760286012697" cy="226.525" style="opacity: 0.8; fill: #d62728;" r="3"></circle><circle class="cat0" cx="129.32760286012697" cy="218.28" style="opacity: 0.8; fill: #d62728;" r="3"></circle><circle class="cat0" cx="129.32760286012697" cy="226.525" style="opacity: 0.8; fill: #d62728;" r="3"></circle><circle class="cat0" cx="129.32760286012697" cy="201.28000000000003" style="opacity: 0.8; fill: #d62728;" r="3"></circle><circle class="cat0" cx="129.32760286012697" cy="151.72500000000002" style="opacity: 0.8; fill: #d62728;" r="3"></circle><circle class="cat0" cx="129.32760286012697" cy="225.845" style="opacity: 0.8; fill: #d62728;" r="3"></circle><circle class="cat0" cx="72.60280698479069" cy="150.27999999999997" style="opacity: 0.8; fill: #9467bd;" r="3"></circle><circle class="cat0" cx="72.60280698479069" cy="232.645" style="opacity: 0.8; fill: #9467bd;" r="3"></circle><circle class="cat0" cx="72.60280698479069" cy="246.16" style="opacity: 0.8; fill: #9467bd;" r="3"></circle><circle class="cat0" cx="72.60280698479069" cy="222.445" style="opacity: 0.8; fill: #9467bd;" r="3"></circle><circle class="cat0" cx="72.60280698479069" cy="208.165" style="opacity: 0.8; fill: #9467bd;" r="3"></circle><circle class="cat0" cx="72.60280698479069" cy="223.125" style="opacity: 0.8; fill: #9467bd;" r="3"></circle><circle class="cat0" cx="72.60280698479069" cy="163.88" style="opacity: 0.8; fill: #9467bd;" r="3"></circle><circle class="cat0" cx="72.60280698479069" cy="224.39999999999998" style="opacity: 0.8; fill: #9467bd;" r="3"></circle><circle class="cat0" cx="72.60280698479069" cy="208.76" style="opacity: 0.8; fill: #9467bd;" r="3"></circle><circle class="cat0" cx="273.8060614234913" cy="100.64000000000001" style="opacity: 0.8; fill: #8c564b;" r="3"></circle><circle class="cat0" cx="273.8060614234913" cy="185.725" style="opacity: 0.8; fill: #8c564b;" r="3"></circle><circle class="cat0" cx="273.8060614234913" cy="204" style="opacity: 0.8; fill: #8c564b;" r="3"></circle><circle class="cat0" cx="273.8060614234913" cy="164.56" style="opacity: 0.8; fill: #8c564b;" r="3"></circle><circle class="cat0" cx="273.8060614234913" cy="214.88" style="opacity: 0.8; fill: #8c564b;" r="3"></circle><circle class="cat0" cx="273.8060614234913" cy="150.365" style="opacity: 0.8; fill: #8c564b;" r="3"></circle><circle class="cat0" cx="273.8060614234913" cy="124.52499999999999" style="opacity: 0.8; fill: #8c564b;" r="3"></circle><circle class="cat0" cx="273.8060614234913" cy="200.60000000000002" style="opacity: 0.8; fill: #8c564b;" r="3"></circle><circle class="cat0" cx="273.8060614234913" cy="168.045" style="opacity: 0.8; fill: #8c564b;" r="3"></circle><circle class="cat0" cx="183.1927981265426" cy="225.165" style="opacity: 0.8; fill: #e377c2;" r="3"></circle><circle class="cat0" cx="183.1927981265426" cy="204.765" style="opacity: 0.8; fill: #e377c2;" r="3"></circle><circle class="cat0" cx="183.1927981265426" cy="136" style="opacity: 0.8; fill: #e377c2;" r="3"></circle><circle class="cat0" cx="183.1927981265426" cy="175.44" style="opacity: 0.8; fill: #e377c2;" r="3"></circle><circle class="cat0" cx="183.1927981265426" cy="163.96499999999997" style="opacity: 0.8; fill: #e377c2;" r="3"></circle><circle class="cat0" cx="183.1927981265426" cy="174.165" style="opacity: 0.8; fill: #e377c2;" r="3"></circle><circle class="cat0" cx="183.1927981265426" cy="208.07999999999998" style="opacity: 0.8; fill: #e377c2;" r="3"></circle><circle class="cat0" cx="183.1927981265426" cy="189.805" style="opacity: 0.8; fill: #e377c2;" r="3"></circle><circle class="cat0" cx="183.1927981265426" cy="197.88000000000002" style="opacity: 0.8; fill: #e377c2;" r="3"></circle><circle class="cat0" cx="117.92366166185452" cy="241.39999999999998" style="opacity: 0.8; fill: #7f7f7f;" r="3"></circle><circle class="cat0" cx="117.92366166185452" cy="163.96499999999997" style="opacity: 0.8; fill: #7f7f7f;" r="3"></circle><circle class="cat0" cx="117.92366166185452" cy="191.84499999999997" style="opacity: 0.8; fill: #7f7f7f;" r="3"></circle><circle class="cat0" cx="117.92366166185452" cy="255.765" style="opacity: 0.8; fill: #7f7f7f;" r="3"></circle><circle class="cat0" cx="117.92366166185452" cy="252.96" style="opacity: 0.8; fill: #7f7f7f;" r="3"></circle><circle class="cat0" cx="117.92366166185452" cy="263.925" style="opacity: 0.8; fill: #7f7f7f;" r="3"></circle><circle class="cat0" cx="117.92366166185452" cy="251.6" style="opacity: 0.8; fill: #7f7f7f;" r="3"></circle><circle class="cat0" cx="117.92366166185452" cy="232.645" style="opacity: 0.8; fill: #7f7f7f;" r="3"></circle><circle class="cat0" cx="117.92366166185452" cy="247.60500000000002" style="opacity: 0.8; fill: #7f7f7f;" r="3"></circle><circle class="cat0" cx="9.03011342961258" cy="244.205" style="opacity: 0.8; fill: #bcbd22;" r="3"></circle><circle class="cat0" cx="9.03011342961258" cy="261.12" style="opacity: 0.8; fill: #bcbd22;" r="3"></circle><circle class="cat0" cx="9.03011342961258" cy="268.005" style="opacity: 0.8; fill: #bcbd22;" r="3"></circle><circle class="cat0" cx="9.03011342961258" cy="291.71999999999997" style="opacity: 0.8; fill: #bcbd22;" r="3"></circle><circle class="cat0" cx="9.03011342961258" cy="320.96" style="opacity: 0.8; fill: #bcbd22;" r="3"></circle><circle class="cat0" cx="9.03011342961258" cy="229.15999999999997" style="opacity: 0.8; fill: #bcbd22;" r="3"></circle><circle class="cat0" cx="9.03011342961258" cy="266.56" style="opacity: 0.8; fill: #bcbd22;" r="3"></circle><circle class="cat0" cx="9.03011342961258" cy="264.605" style="opacity: 0.8; fill: #bcbd22;" r="3"></circle><circle class="cat0" cx="9.03011342961258" cy="270.725" style="opacity: 0.8; fill: #bcbd22;" r="3"></circle><line class="cat" style="stroke: rgb(108,2,126); stroke-width: 2;" x1="0" x2="420" y1="265.85594631197904" y2="101.24375725634425"></line></g></svg>