<svg xmlns="http://www.w3.org/2000/svg" width="300" height="300" x="0" y="0" fill="white"><g transform="translate(150,150 )"><circle class="hit" cx="-33.35756062569703" cy="41.379622389564204" r="3" style="fill: red; opacity: 1;"></circle><circle class="hit" cx="-60.650075768825076" cy="25.42770751042584" r="3" style="fill: red; opacity: 1;"></circle><circle class="hit" cx="-39.82430928159472" cy="25.768670711619997" r="3" style="fill: red; opacity: 1;"></circle><circle class="hit" cx="-45.38343268794348" cy="-52.58653855749505" r="3" style="fill: red; opacity: 1;"></circle><circle class="hit" cx="44.534408312380656" cy="25.820272583110672" r="3" style="fill: red; opacity: 1;"></circle><circle class="hit" cx="71.36829679963103" cy="5.618381610375328" r="3" style="fill: red; opacity: 1;"></circle><circle class="hit" cx="-24.288490281715454" cy="-5.921928725931039" r="3" style="fill: red; opacity: 1;"></circle><circle class="hit" cx="-6.3006159474622745" cy="30.988743741600686" r="3" style="fill: red; opacity: 1;"></circle><circle class="hit" cx="-9.64807433255813" cy="28.842930878698986" r="3" style="fill: red; opacity: 1;"></circle><circle class="hit" cx="85.96672060600761" cy="24.692568684704426" r="3" style="fill: red; opacity: 1;"></circle><circle class="hit" cx="-44.643844313710204" cy="2.6319507771154087" r="3" style="fill: red; opacity: 1;"></circle><circle class="hit" cx="-21.776318890497528" cy="-5.078576137006473" r="3" style="fill: red; opacity: 1;"></circle><circle class="hit" cx="-24.767796319325303" cy="-19.66103419162955" r="3" style="fill: red; opacity: 1;"></circle><circle class="hit" cx="-20.05108531782078" cy="19.948783862117768" r="3" style="fill: red; opacity: 1;"></circle><circle class="hit" cx="16.349433116011415" cy="15.254377626932069" r="3" style="fill: red; opacity: 1;"></circle><circle class="hit" cx="46.28522245785531" cy="39.467431915782086" r="3" style="fill: red; opacity: 1;"></circle><circle class="hit" cx="-4.95599728790118" cy="8.685510398493065" r="3" style="fill: red; opacity: 1;"></circle><circle class="hit" cx="43.810380377614386" cy="98.89717170459748" r="3" style="fill: red; opacity: 1;"></circle><circle class="hit" cx="-75.42259525120515" cy="20.437272948534538" r="3" style="fill: red; opacity: 1;"></circle><circle class="hit" cx="2.1937847754767454" cy="-13.970945149090284" r="3" style="fill: red; opacity: 1;"></circle><circle class="hit" cx="-18.461054937187516" cy="-13.103032114977598" r="3" style="fill: red; opacity: 1;"></circle><circle class="hit" cx="-13.752334795545343" cy="29.552889667022733" r="3" style="fill: red; opacity: 1;"></circle><circle class="hit" cx="-11.807124367969985" cy="-26.77390173581912" r="3" style="fill: red; opacity: 1;"></circle><circle class="hit" cx="17.681362558999297" cy="23.315647493844484" r="3" style="fill: red; opacity: 1;"></circle><circle class="hit" cx="-94.07041011526297" cy="-26.706889387314394" r="3" style="fill: red; opacity: 1;"></circle><circle class="hit" cx="20.565913384452394" cy="40.1035310996826" r="3" style="fill: red; opacity: 1;"></circle><circle class="hit" cx="-70.1134010864377" cy="-3.018441334907714" r="3" style="fill: red; opacity: 1;"></circle><circle class="hit" cx="-22.919711788133377" cy="-26.094765979960293" r="3" style="fill: red; opacity: 1;"></circle><circle class="hit" cx="-15.845462214896664" cy="48.78699957156918" r="3" style="fill: red; opacity: 1;"></circle><circle class="hit" cx="-59.074702261495446" cy="36.880612152127306" r="3" style="fill: red; opacity: 1;"></circle><circle class="hit" cx="25.50914595409985" cy="-49.742169963647804" r="3" style="fill: red; opacity: 1;"></circle><circle class="hit" cx="-50.75166955024094" cy="12.21752994116018" r="3" style="fill: red; opacity: 1;"></circle><circle class="hit" cx="-54.851924788611505" cy="-29.112134016325403" r="3" style="fill: red; opacity: 1;"></circle><circle class="hit" cx="56.111904192240914" cy="-45.90973979365168" r="3" style="fill: red; opacity: 1;"></circle><circle class="hit" cx="73.32075446534569" cy="-65.37634866396641" r="3" style="fill: red; opacity: 1;"></circle><circle class="hit" cx="88.75292121683952" cy="65.03206113508553" r="3" style="fill: red; opacity: 1;"></circle><circle class="hit" cx="-28.699992765704827" cy="-26.482266051991864" r="3" style="fill: red; opacity: 1;"></circle><circle class="hit" cx="-32.56241604008495" cy="23.763187110158825" r="3" style="fill: red; opacity: 1;"></circle><circle class="hit" cx="29.78634956071245" cy="10.619481147732388" r="3" style="fill: red; opacity: 1;"></circle><circle class="hit" cx="-55.91357738837536" cy="22.3309619952698" r="3" style="fill: red; opacity: 1;"></circle><circle class="hit" cx="0" cy="0" r="3" style="fill: red; opacity: 1;"></circle><circle class="hit" cx="352.43670284729296" cy="-10.647557754201628" r="3" style="fill: red; opacity: 1;"></circle><circle class="hit" cx="-58.207588351515476" cy="3.4462527911433454" r="3" style="fill: red; opacity: 1;"></circle><circle class="hit" cx="-5.588235294117313" cy="42.35294117647036" r="3" style="fill: red; opacity: 1;"></circle><circle class="hit" cx="-61.44684555301275" cy="7.020339848194293" r="3" style="fill: red; opacity: 1;"></circle><circle class="hit" cx="41.13996029512723" cy="2.7392821898112727" r="3" style="fill: red; opacity: 1;"></circle><circle class="hit" cx="25.763174429431235" cy="65.85027595476473" r="3" style="fill: red; opacity: 1;"></circle><circle class="hit" cx="17.220128076458415" cy="26.522955887879295" r="3" style="fill: red; opacity: 1;"></circle><circle class="hit" cx="16.060339623312018" cy="-15.55845401008374" r="3" style="fill: red; opacity: 1;"></circle><circle class="hit" cx="9.796449473212267" cy="20.100487002030135" r="3" style="fill: red; opacity: 1;"></circle><circle class="hit" cx="57.31251560925193" cy="10.736645404372549" r="3" style="fill: red; opacity: 1;"></circle><circle class="hit" cx="51.21475197315752" cy="-16.64479439127575" r="3" style="fill: red; opacity: 1;"></circle><circle class="hit" cx="41.323030816000504" cy="47.87908858969443" r="3" style="fill: red; opacity: 1;"></circle><circle class="hit" cx="-19.353836385567334" cy="57.66653290393532" r="3" style="fill: red; opacity: 1;"></circle><circle class="hit" cx="-41.138862942101476" cy="-2.7557133071265705" r="3" style="fill: red; opacity: 1;"></circle><circle class="hit" cx="51.29886552411072" cy="27.72050497265647" r="3" style="fill: red; opacity: 1;"></circle><circle class="hit" cx="28.155124666712204" cy="-2.6998064748904453" r="3" style="fill: red; opacity: 1;"></circle><circle class="hit" cx="43.911136622308646" cy="81.06671376426347" r="3" style="fill: red; opacity: 1;"></circle><circle class="hit" cx="45.35458347811805" cy="-82.72219628084483" r="3" style="fill: red; opacity: 1;"></circle><circle class="hit" cx="16.729051974642008" cy="-14.837075858462702" r="3" style="fill: red; opacity: 1;"></circle><circle class="hit" cx="21.647105012639535" cy="-68.78519349810588" r="3" style="fill: red; opacity: 1;"></circle><circle class="hit" cx="-2.3491412105893734" cy="-49.94478486861973" r="3" style="fill: red; opacity: 1;"></circle><circle class="hit" cx="-18.48060667594312" cy="36.85738971887544" r="3" style="fill: red; opacity: 1;"></circle><circle class="hit" cx="-14.923888380342337" cy="1.5091572519446508" r="3" style="fill: red; opacity: 1;"></circle><circle class="hit" cx="-34.44129410643565" cy="78.82764274208654" r="3" style="fill: red; opacity: 1;"></circle><circle class="hit" cx="0.6625069338179939" cy="-11.16069373124513" r="3" style="fill: red; opacity: 1;"></circle><circle class="hit" cx="-38.06374658946843" cy="1.0729378233275901" r="3" style="fill: red; opacity: 1;"></circle><circle class="hit" cx="59.47318480201478" cy="-16.968803419965916" r="3" style="fill: red; opacity: 1;"></circle><circle class="hit" cx="-30.685054288338073" cy="19.581303412228003" r="3" style="fill: red; opacity: 1;"></circle><circle class="hit" cx="-16.31778784096067" cy="-60.48743505867495" r="3" style="fill: red; opacity: 1;"></circle><circle class="hit" cx="18.221086659662394" cy="50.921429682807414" r="3" style="fill: red; opacity: 1;"></circle><circle class="hit" cx="22.989751210873802" cy="-27.77537289150476" r="3" style="fill: red; opacity: 1;"></circle><circle class="hit" cx="-52.12966001430216" cy="17.712948562937225" r="3" style="fill: red; opacity: 1;"></circle><circle class="hit" cx="16.691513529293584" cy="25.05281174042952" r="3" style="fill: red; opacity: 1;"></circle><circle class="hit" cx="-38.30793831685726" cy="49.446960087672494" r="3" style="fill: red; opacity: 1;"></circle><circle class="hit" cx="-26.40961398949085" cy="-37.78269827482023" r="3" style="fill: red; opacity: 1;"></circle><circle class="hit" cx="-208.4192095574193" cy="-11.132523858518406" r="3" style="fill: red; opacity: 1;"></circle><circle class="hit" cx="-63.96282923164122" cy="24.925017084927713" r="3" style="fill: red; opacity: 1;"></circle><circle class="hit" cx="89.44540664131804" cy="3.466876226407682" r="3" style="fill: red; opacity: 1;"></circle><circle class="hit" cx="54.367040709178305" cy="40.00593561618767" r="3" style="fill: red; opacity: 1;"></circle><circle class="hit" cx="79.83787284236465" cy="-11.764950488904942" r="3" style="fill: red; opacity: 1;"></circle><circle cx="0" cy="0" r="100" fill="rgb(0,0,0)" style="opacity: 0.1;"></circle><line stroke="rgb(0,0,0)" x1="0" y1="0" x2="-150" y2="0"></line><line stroke="rgb(0,0,0)" x1="0" y1="0" x2="-10" y2="-10"></line><line stroke="rgb(0,0,0)" x1="0" y1="0" x2="-10" y2="10"></line><g class="axis" transform="translate(0,100)" fill="none" font-size="10" font-family="sans-serif" text-anchor="middle"><path class="domain" stroke="currentColor" d="M0.5,0.5H1.5"></path><text x="0" y="25" fill="rgb(0,0,0)" style="text-anchor: middle;">hit accuracy plot (2/81 targets missed)</text></g></g></svg>