<svg xmlns="http://www.w3.org/2000/svg" width="300" height="300" x="0" y="0" fill="white"><g transform="translate(150,150 )"><circle class="hit" cx="-33.35756062569744" cy="41.379622389564204" r="3" style="fill: red; opacity: 1;"></circle><circle class="hit" cx="-61.28517141589942" cy="23.856398817169044" r="3" style="fill: red; opacity: 1;"></circle><circle class="hit" cx="-40.39639372140783" cy="24.862247973684166" r="3" style="fill: red; opacity: 1;"></circle><circle class="hit" cx="-44.36865740442332" cy="-53.44550720246704" r="3" style="fill: red; opacity: 1;"></circle><circle class="hit" cx="45" cy="25" r="3" style="fill: red; opacity: 1;"></circle><circle class="hit" cx="71.3453089021051" cy="5.903126092434146" r="3" style="fill: red; opacity: 1;"></circle><circle class="hit" cx="-24.341904856318116" cy="-5.698391699940732" r="3" style="fill: red; opacity: 1;"></circle><circle class="hit" cx="-6.348163602226996" cy="30.97903837886754" r="3" style="fill: red; opacity: 1;"></circle><circle class="hit" cx="-10.10373601904692" cy="28.686486687243566" r="3" style="fill: red; opacity: 1;"></circle><circle class="hit" cx="85.70405226206633" cy="25.589361575878087" r="3" style="fill: red; opacity: 1;"></circle><circle class="hit" cx="-44.64028645086024" cy="2.691621367344604" r="3" style="fill: red; opacity: 1;"></circle><circle class="hit" cx="-21.752880565030527" cy="-5.178048582574279" r="3" style="fill: red; opacity: 1;"></circle><circle class="hit" cx="-24.755044903755767" cy="-19.67708697477964" r="3" style="fill: red; opacity: 1;"></circle><circle class="hit" cx="-20" cy="20" r="3" style="fill: red; opacity: 1;"></circle><circle class="hit" cx="16.249465372721488" cy="15.360822735150755" r="3" style="fill: red; opacity: 1;"></circle><circle class="hit" cx="46.19631578571359" cy="39.57145951094872" r="3" style="fill: red; opacity: 1;"></circle><circle class="hit" cx="-5.002352918554873" cy="8.658895153437156" r="3" style="fill: red; opacity: 1;"></circle><circle class="hit" cx="43.562841730363104" cy="99.00645847809847" r="3" style="fill: red; opacity: 1;"></circle><circle class="hit" cx="-74.61025165823845" cy="23.228438335246008" r="3" style="fill: red; opacity: 1;"></circle><circle class="hit" cx="3.7038662645541276" cy="-13.64849349541175" r="3" style="fill: red; opacity: 1;"></circle><circle class="hit" cx="-18.828538739121623" cy="-12.569253317098601" r="3" style="fill: red; opacity: 1;"></circle><circle class="hit" cx="-13.417447480234424" cy="29.706432015897846" r="3" style="fill: red; opacity: 1;"></circle><circle class="hit" cx="-10" cy="-27.5" r="3" style="fill: red; opacity: 1;"></circle><circle class="hit" cx="18.76663818968388" cy="22.45135388027849" r="3" style="fill: red; opacity: 1;"></circle><circle class="hit" cx="-93.28109165371025" cy="-29.34515189758111" r="3" style="fill: red; opacity: 1;"></circle><circle class="hit" cx="20.104890511364015" cy="40.33662575781552" r="3" style="fill: red; opacity: 1;"></circle><circle class="hit" cx="-69.81224636276136" cy="-7.158928536108546" r="3" style="fill: red; opacity: 1;"></circle><circle class="hit" cx="-22.416077650297566" cy="-26.52865361784931" r="3" style="fill: red; opacity: 1;"></circle><circle class="hit" cx="-14.96262161044903" cy="49.064956481612526" r="3" style="fill: red; opacity: 1;"></circle><circle class="hit" cx="-60.90552732297722" cy="33.77153744664377" r="3" style="fill: red; opacity: 1;"></circle><circle class="hit" cx="28.24614097992603" cy="-48.24060032526715" r="3" style="fill: red; opacity: 1;"></circle><circle class="hit" cx="-50" cy="15" r="3" style="fill: red; opacity: 1;"></circle><circle class="hit" cx="-53.85809128419613" cy="-30.91206889263802" r="3" style="fill: red; opacity: 1;"></circle><circle class="hit" cx="55.57518319385683" cy="-46.55801770876082" r="3" style="fill: red; opacity: 1;"></circle><circle class="hit" cx="69.16959060986534" cy="-69.75362166127024" r="3" style="fill: red; opacity: 1;"></circle><circle class="hit" cx="94.05613555419306" cy="57.093724389036346" r="3" style="fill: red; opacity: 1;"></circle><circle class="hit" cx="-29.80348262904795" cy="-25.233953776212573" r="3" style="fill: red; opacity: 1;"></circle><circle class="hit" cx="-32.21856271221741" cy="24.227344401706986" r="3" style="fill: red; opacity: 1;"></circle><circle class="hit" cx="29.39583437063412" cy="11.656968802147965" r="3" style="fill: red; opacity: 1;"></circle><circle class="hit" cx="-55.93144299999217" cy="22.286176970010658" r="3" style="fill: red; opacity: 1;"></circle><circle class="hit" cx="0" cy="0" r="3" style="fill: red; opacity: 1;"></circle><circle class="hit" cx="352.43670284729274" cy="-10.647557754201628" r="3" style="fill: red; opacity: 1;"></circle><circle class="hit" cx="-57.575289388000435" cy="9.224210095613133" r="3" style="fill: red; opacity: 1;"></circle><circle class="hit" cx="-6.874984641740881" cy="42.163189943075146" r="3" style="fill: red; opacity: 1;"></circle><circle class="hit" cx="-61.68863951327633" cy="4.417211224407465" r="3" style="fill: red; opacity: 1;"></circle><circle class="hit" cx="41.12575967551743" cy="2.9448074829380673" r="3" style="fill: red; opacity: 1;"></circle><circle class="hit" cx="26.13001542801885" cy="65.7055727753095" r="3" style="fill: red; opacity: 1;"></circle><circle class="hit" cx="16.522486215218436" cy="26.963075664098476" r="3" style="fill: red; opacity: 1;"></circle><circle class="hit" cx="16.212749038616355" cy="-15.399570403450422" r="3" style="fill: red; opacity: 1;"></circle><circle class="hit" cx="9.999999999999815" cy="20" r="3" style="fill: red; opacity: 1;"></circle><circle class="hit" cx="57.22744644978772" cy="11.181206233527622" r="3" style="fill: red; opacity: 1;"></circle><circle class="hit" cx="51.13861531029264" cy="-16.877263526588386" r="3" style="fill: red; opacity: 1;"></circle><circle class="hit" cx="42.11245204904009" cy="47.18624145253861" r="3" style="fill: red; opacity: 1;"></circle><circle class="hit" cx="-20.207472038093655" cy="57.37297337448713" r="3" style="fill: red; opacity: 1;"></circle><circle class="hit" cx="-41.125759675517614" cy="-2.9448074829380673" r="3" style="fill: red; opacity: 1;"></circle><circle class="hit" cx="50.96207183216719" cy="28.334911938684563" r="3" style="fill: red; opacity: 1;"></circle><circle class="hit" cx="28.17793902425769" cy="-2.4502555673276256" r="3" style="fill: red; opacity: 1;"></circle><circle class="hit" cx="44.86060646574011" cy="80.54517979076209" r="3" style="fill: red; opacity: 1;"></circle><circle class="hit" cx="49.999999999999915" cy="-80" r="3" style="fill: red; opacity: 1;"></circle><circle class="hit" cx="15.293388567865886" cy="-16.312947805723713" r="3" style="fill: red; opacity: 1;"></circle><circle class="hit" cx="20.21460843044573" cy="-69.21971977698014" r="3" style="fill: red; opacity: 1;"></circle><circle class="hit" cx="-6.0135244761957285" cy="-49.63705796453047" r="3" style="fill: red; opacity: 1;"></circle><circle class="hit" cx="-16.75493912706264" cy="37.673226764485904" r="3" style="fill: red; opacity: 1;"></circle><circle class="hit" cx="-14.774809957500771" cy="2.5893996832734754" r="3" style="fill: red; opacity: 1;"></circle><circle class="hit" cx="-35.67345028251704" cy="78.27774233420877" r="3" style="fill: red; opacity: 1;"></circle><circle class="hit" cx="2.603396540284724" cy="-10.873009080012721" r="3" style="fill: red; opacity: 1;"></circle><circle class="hit" cx="-38.029559572093476" cy="1.9371625519293778" r="3" style="fill: red; opacity: 1;"></circle><circle class="hit" cx="59.99999999999996" cy="-15" r="3" style="fill: red; opacity: 1;"></circle><circle class="hit" cx="-29.363306050302775" cy="21.512699918797857" r="3" style="fill: red; opacity: 1;"></circle><circle class="hit" cx="-12.4044188095917" cy="-61.40953015612677" r="3" style="fill: red; opacity: 1;"></circle><circle class="hit" cx="24.003135832950747" cy="48.46493031239106" r="3" style="fill: red; opacity: 1;"></circle><circle class="hit" cx="24.87854597654769" cy="-26.09708700397065" r="3" style="fill: red; opacity: 1;"></circle><circle class="hit" cx="-53.74273656362394" cy="11.956933831585754" r="3" style="fill: red; opacity: 1;"></circle><circle class="hit" cx="12.816961065790071" cy="27.239227394293422" r="3" style="fill: red; opacity: 1;"></circle><circle class="hit" cx="-42.113767563428596" cy="46.24857383329263" r="3" style="fill: red; opacity: 1;"></circle><circle class="hit" cx="-16.007080034366417" cy="-43.22931168516779" r="3" style="fill: red; opacity: 1;"></circle><circle class="hit" cx="-207.5" cy="22.5" r="3" style="fill: red; opacity: 1;"></circle><circle class="hit" cx="-55.10717680621043" cy="-40.9353033999879" r="3" style="fill: red; opacity: 1;"></circle><circle class="hit" cx="89.28118723446865" cy="-6.431920864232749" r="3" style="fill: red; opacity: 1;"></circle><circle class="hit" cx="58.478977427411856" cy="33.71141051697859" r="3" style="fill: red; opacity: 1;"></circle><circle class="hit" cx="80.22061763866398" cy="-8.78364990600555" r="3" style="fill: red; opacity: 1;"></circle><circle cx="0" cy="0" r="100" fill="rgb(0,0,0)" style="opacity: 0.1;"></circle><line stroke="rgb(0,0,0)" x1="0" y1="0" x2="-150" y2="0"></line><line stroke="rgb(0,0,0)" x1="0" y1="0" x2="-10" y2="-10"></line><line stroke="rgb(0,0,0)" x1="0" y1="0" x2="-10" y2="10"></line><g class="axis" transform="translate(0,100)" fill="none" font-size="10" font-family="sans-serif" text-anchor="middle"><path class="domain" stroke="currentColor" d="M0.5,0.5H1.5"></path><text x="0" y="25" fill="rgb(0,0,0)" style="text-anchor: middle;">hit accuracy plot (2/81 targets missed)</text></g></g></svg>