<svg xmlns="http://www.w3.org/2000/svg" width="500" height="400" x="0" y="0" fill="white"><g transform="translate(50,30 )"><g class="axis" transform="translate(0,340)" fill="none" font-size="10" font-family="sans-serif" text-anchor="middle"><path class="domain" stroke="currentColor" d="M0.5,3V0.5H420.5V3"></path><g class="tick" opacity="1" transform="translate(0.5,0)"><line stroke="currentColor" y2="3"></line><text fill="currentColor" y="6" dy="0.71em">0.0</text></g><g class="tick" opacity="1" transform="translate(21.5,0)"><line stroke="currentColor" y2="3"></line><text fill="currentColor" y="6" dy="0.71em">0.5</text></g><g class="tick" opacity="1" transform="translate(42.5,0)"><line stroke="currentColor" y2="3"></line><text fill="currentColor" y="6" dy="0.71em">1.0</text></g><g class="tick" opacity="1" transform="translate(63.5,0)"><line stroke="currentColor" y2="3"></line><text fill="currentColor" y="6" dy="0.71em">1.5</text></g><g class="tick" opacity="1" transform="translate(84.5,0)"><line stroke="currentColor" y2="3"></line><text fill="currentColor" y="6" dy="0.71em">2.0</text></g><g class="tick" opacity="1" transform="translate(105.5,0)"><line stroke="currentColor" y2="3"></line><text fill="currentColor" y="6" dy="0.71em">2.5</text></g><g class="tick" opacity="1" transform="translate(126.5,0)"><line stroke="currentColor" y2="3"></line><text fill="currentColor" y="6" dy="0.71em">3.0</text></g><g class="tick" opacity="1" transform="translate(147.5,0)"><line stroke="currentColor" y2="3"></line><text fill="currentColor" y="6" dy="0.71em">3.5</text></g><g class="tick" opacity="1" transform="translate(168.5,0)"><line stroke="currentColor" y2="3"></line><text fill="currentColor" y="6" dy="0.71em">4.0</text></g><g class="tick" opacity="1" transform="translate(189.5,0)"><line stroke="currentColor" y2="3"></line><text fill="currentColor" y="6" dy="0.71em">4.5</text></g><g class="tick" opacity="1" transform="translate(210.5,0)"><line stroke="currentColor" y2="3"></line><text fill="currentColor" y="6" dy="0.71em">5.0</text></g><g class="tick" opacity="1" transform="translate(231.50000000000003,0)"><line stroke="currentColor" y2="3"></line><text fill="currentColor" y="6" dy="0.71em">5.5</text></g><g class="tick" opacity="1" transform="translate(252.5,0)"><line stroke="currentColor" y2="3"></line><text fill="currentColor" y="6" dy="0.71em">6.0</text></g><g class="tick" opacity="1" transform="translate(273.5,0)"><line stroke="currentColor" y2="3"></line><text fill="currentColor" y="6" dy="0.71em">6.5</text></g><g class="tick" opacity="1" transform="translate(294.5,0)"><line stroke="currentColor" y2="3"></line><text fill="currentColor" y="6" dy="0.71em">7.0</text></g><g class="tick" opacity="1" transform="translate(315.5,0)"><line stroke="currentColor" y2="3"></line><text fill="currentColor" y="6" dy="0.71em">7.5</text></g><g class="tick" opacity="1" transform="translate(336.5,0)"><line stroke="currentColor" y2="3"></line><text fill="currentColor" y="6" dy="0.71em">8.0</text></g><g class="tick" opacity="1" transform="translate(357.5,0)"><line stroke="currentColor" y2="3"></line><text fill="currentColor" y="6" dy="0.71em">8.5</text></g><g class="tick" opacity="1" transform="translate(378.5,0)"><line stroke="currentColor" y2="3"></line><text fill="currentColor" y="6" dy="0.71em">9.0</text></g><g class="tick" opacity="1" transform="translate(399.5,0)"><line stroke="currentColor" y2="3"></line><text fill="currentColor" y="6" dy="0.71em">9.5</text></g><g class="tick" opacity="1" transform="translate(420.5,0)"><line stroke="currentColor" y2="3"></line><text fill="currentColor" y="6" dy="0.71em">10.0</text></g><text x="210" y="25" fill="rgb(0,0,0)" style="text-anchor: middle;">histogram of effective throughputs (bits/s)</text></g><rect class="bar" rx="3" ry="3" style="fill: rgb(20,20,80);" x="-9" y="340" width="20" height="0"></rect><rect class="bar" rx="3" ry="3" style="fill: rgb(20,20,80);" x="12" y="204" width="20" height="136"></rect><rect class="bar" rx="3" ry="3" style="fill: rgb(20,20,80);" x="33" y="340" width="20" height="0"></rect><rect class="bar" rx="3" ry="3" style="fill: rgb(20,20,80);" x="54" y="0" width="20" height="340"></rect><rect class="bar" rx="3" ry="3" style="fill: rgb(20,20,80);" x="75" y="204" width="20" height="136"></rect><rect class="bar" rx="3" ry="3" style="fill: rgb(20,20,80);" x="96" y="340" width="20" height="0"></rect><rect class="bar" rx="3" ry="3" style="fill: rgb(20,20,80);" x="117" y="340" width="20" height="0"></rect><rect class="bar" rx="3" ry="3" style="fill: rgb(20,20,80);" x="138" y="340" width="20" height="0"></rect><rect class="bar" rx="3" ry="3" style="fill: rgb(20,20,80);" x="159" y="340" width="20" height="0"></rect><rect class="bar" rx="3" ry="3" style="fill: rgb(20,20,80);" x="180" y="340" width="20" height="0"></rect><rect class="bar" rx="3" ry="3" style="fill: rgb(20,20,80);" x="201" y="340" width="20" height="0"></rect><rect class="bar" rx="3" ry="3" style="fill: rgb(20,20,80);" x="222.00000000000003" y="340" width="20" height="0"></rect><rect class="bar" rx="3" ry="3" style="fill: rgb(20,20,80);" x="243" y="340" width="20" height="0"></rect><rect class="bar" rx="3" ry="3" style="fill: rgb(20,20,80);" x="264" y="340" width="20" height="0"></rect><rect class="bar" rx="3" ry="3" style="fill: rgb(20,20,80);" x="285" y="340" width="20" height="0"></rect><rect class="bar" rx="3" ry="3" style="fill: rgb(20,20,80);" x="306" y="340" width="20" height="0"></rect><rect class="bar" rx="3" ry="3" style="fill: rgb(20,20,80);" x="327" y="340" width="20" height="0"></rect><rect class="bar" rx="3" ry="3" style="fill: rgb(20,20,80);" x="348" y="340" width="20" height="0"></rect><rect class="bar" rx="3" ry="3" style="fill: rgb(20,20,80);" x="369" y="340" width="20" height="0"></rect><rect class="bar" rx="3" ry="3" style="fill: rgb(20,20,80);" x="390" y="340" width="20" height="0"></rect></g></svg>