<svg xmlns="http://www.w3.org/2000/svg" width="500" height="400" x="0" y="0" fill="white"><g transform="translate(50,30 )"><g class="axis" stroke="rgb(0,0,0)" stroke-width="0.2" fill="none" font-size="10" font-family="sans-serif" text-anchor="middle"><path class="domain" stroke="currentColor" d="M0.5,340V0.5H420.5V340"></path><g class="tick" opacity="1" transform="translate(42.5,0)"><line stroke="currentColor" y2="340"></line><text fill="currentColor" y="343" dy="0.71em">1</text></g><g class="tick" opacity="1" transform="translate(126.5,0)"><line stroke="currentColor" y2="340"></line><text fill="currentColor" y="343" dy="0.71em">2</text></g><g class="tick" opacity="1" transform="translate(210.5,0)"><line stroke="currentColor" y2="340"></line><text fill="currentColor" y="343" dy="0.71em">3</text></g><g class="tick" opacity="1" transform="translate(294.5,0)"><line stroke="currentColor" y2="340"></line><text fill="currentColor" y="343" dy="0.71em">4</text></g><g class="tick" opacity="1" transform="translate(378.5,0)"><line stroke="currentColor" y2="340"></line><text fill="currentColor" y="343" dy="0.71em">5</text></g><text x="210" y="365" fill="rgb(0,0,0)" style="text-anchor: middle;">ID - Index of Difficulty</text></g><g class="axis" stroke="rgb(0,0,0)" stroke-width="0.2" fill="none" font-size="10" font-family="sans-serif" text-anchor="end"><path class="domain" stroke="currentColor" d="M420,0.5H0.5V340.5H420"></path><g class="tick" opacity="1" transform="translate(0,0.5)"><line stroke="currentColor" x2="420"></line><text fill="currentColor" x="-3" dy="0.32em">4,000</text></g><g class="tick" opacity="1" transform="translate(0,43)"><line stroke="currentColor" x2="420"></line><text fill="currentColor" x="-3" dy="0.32em">3,500</text></g><g class="tick" opacity="1" transform="translate(0,85.5)"><line stroke="currentColor" x2="420"></line><text fill="currentColor" x="-3" dy="0.32em">3,000</text></g><g class="tick" opacity="1" transform="translate(0,128)"><line stroke="currentColor" x2="420"></line><text fill="currentColor" x="-3" dy="0.32em">2,500</text></g><g class="tick" opacity="1" transform="translate(0,170.5)"><line stroke="currentColor" x2="420"></line><text fill="currentColor" x="-3" dy="0.32em">2,000</text></g><g class="tick" opacity="1" transform="translate(0,213)"><line stroke="currentColor" x2="420"></line><text fill="currentColor" x="-3" dy="0.32em">1,500</text></g><g class="tick" opacity="1" transform="translate(0,255.5)"><line stroke="currentColor" x2="420"></line><text fill="currentColor" x="-3" dy="0.32em">1,000</text></g><g class="tick" opacity="1" transform="translate(0,298)"><line stroke="currentColor" x2="420"></line><text fill="currentColor" x="-3" dy="0.32em">500</text></g><g class="tick" opacity="1" transform="translate(0,340.5)"><line stroke="currentColor" x2="420"></line><text fill="currentColor" x="-3" dy="0.32em">0</text></g><text fill="rgb(0,0,0)" x="-170" y="-35" transform="rotate(-90, 0, 0)" style="text-anchor: middle;">time in ms</text></g><circle class="cat0" style="fill: rgb(20,20,250); opacity: 0.8;" cx="246.90424241714348" cy="171.445" r="3"></circle><circle class="cat0" style="fill: rgb(20,20,250); opacity: 0.8;" cx="245.95238813467725" cy="91.88499999999999" r="3"></circle><circle class="cat0" style="fill: rgb(20,20,250); opacity: 0.8;" cx="244.15692397204873" cy="168.64" r="3"></circle><circle class="cat0" style="fill: rgb(20,20,250); opacity: 0.8;" cx="245.24892882731794" cy="209.52499999999998" r="3"></circle><circle class="cat0" style="fill: rgb(20,20,250); opacity: 0.8;" cx="243.5487870047377" cy="204.68" r="3"></circle><circle class="cat0" style="fill: rgb(20,20,250); opacity: 0.8;" cx="249.69741718236125" cy="200.68499999999997" r="3"></circle><circle class="cat0" style="fill: rgb(20,20,250); opacity: 0.8;" cx="250.72345246478264" cy="148.24" r="3"></circle><circle class="cat0" style="fill: rgb(20,20,250); opacity: 0.8;" cx="245.48194828393022" cy="220.405" r="3"></circle><circle class="cat0" style="fill: rgb(20,20,250); opacity: 0.8;" cx="247.1786823469915" cy="199.24000000000004" r="3"></circle><circle class="cat0" style="fill: rgb(20,20,250); opacity: 0.8;" cx="325.1057239752965" cy="172.125" r="3"></circle><circle class="cat0" style="fill: rgb(20,20,250); opacity: 0.8;" cx="327.7435797393275" cy="136" r="3"></circle><circle class="cat0" style="fill: rgb(20,20,250); opacity: 0.8;" cx="323.9968409868923" cy="136.765" r="3"></circle><circle class="cat0" style="fill: rgb(20,20,250); opacity: 0.8;" cx="324.517436790114" cy="206.80499999999998" r="3"></circle><circle class="cat0" style="fill: rgb(20,20,250); opacity: 0.8;" cx="324.32996211299377" cy="129.965" r="3"></circle><circle class="cat0" style="fill: rgb(20,20,250); opacity: 0.8;" cx="324.8222223452542" cy="111.51999999999998" r="3"></circle><circle class="cat0" style="fill: rgb(20,20,250); opacity: 0.8;" cx="325.8015967420805" cy="104.72000000000001" r="3"></circle><circle class="cat0" style="fill: rgb(20,20,250); opacity: 0.8;" cx="326.8149177204449" cy="149.005" r="3"></circle><circle class="cat0" style="fill: rgb(20,20,250); opacity: 0.8;" cx="325.1354872821552" cy="198.56000000000003" r="3"></circle><circle class="cat0" style="fill: rgb(20,20,250); opacity: 0.8;" cx="99.25970616360223" cy="230.60500000000002" r="3"></circle><circle class="cat0" style="fill: rgb(20,20,250); opacity: 0.8;" cx="97.63321989181135" cy="259.08" r="3"></circle><circle class="cat0" style="fill: rgb(20,20,250); opacity: 0.8;" cx="108.46905791067522" cy="244.88500000000002" r="3"></circle><circle class="cat0" style="fill: rgb(20,20,250); opacity: 0.8;" cx="104.49509841140325" cy="252.28" r="3"></circle><circle class="cat0" style="fill: rgb(20,20,250); opacity: 0.8;" cx="107.82481462700751" cy="268.685" r="3"></circle><circle class="cat0" style="fill: rgb(20,20,250); opacity: 0.8;" cx="105.17019973597789" cy="268.6" r="3"></circle><circle class="cat0" style="fill: rgb(20,20,250); opacity: 0.8;" cx="113.03411287631988" cy="208.845" r="3"></circle><circle class="cat0" style="fill: rgb(20,20,250); opacity: 0.8;" cx="90.13723211971751" cy="256.36" r="3"></circle><circle class="cat0" style="fill: rgb(20,20,250); opacity: 0.8;" cx="114.22637344571282" cy="240.805" r="3"></circle><circle class="cat0" style="fill: rgb(20,20,250); opacity: 0.8;" cx="167.54698912067389" cy="244.205" r="3"></circle><circle class="cat0" style="fill: rgb(20,20,250); opacity: 0.8;" cx="170.45584056953774" cy="202.045" r="3"></circle><circle class="cat0" style="fill: rgb(20,20,250); opacity: 0.8;" cx="174.0210581503098" cy="201.95999999999998" r="3"></circle><circle class="cat0" style="fill: rgb(20,20,250); opacity: 0.8;" cx="168.95789604679018" cy="226.525" r="3"></circle><circle class="cat0" style="fill: rgb(20,20,250); opacity: 0.8;" cx="174.78479172604102" cy="218.28" r="3"></circle><circle class="cat0" style="fill: rgb(20,20,250); opacity: 0.8;" cx="169.2748253983162" cy="226.525" r="3"></circle><circle class="cat0" style="fill: rgb(20,20,250); opacity: 0.8;" cx="167.1888679711555" cy="201.28000000000003" r="3"></circle><circle class="cat0" style="fill: rgb(20,20,250); opacity: 0.8;" cx="177.41107554190646" cy="151.72500000000002" r="3"></circle><circle class="cat0" style="fill: rgb(20,20,250); opacity: 0.8;" cx="178.09816157728474" cy="225.845" r="3"></circle><circle class="cat0" style="fill: rgb(20,20,250); opacity: 0.8;" cx="170.8390354399663" cy="150.27999999999997" r="3"></circle><circle class="cat0" style="fill: rgb(20,20,250); opacity: 0.8;" cx="169.86816618014748" cy="232.645" r="3"></circle><circle class="cat0" style="fill: rgb(20,20,250); opacity: 0.8;" cx="171.57123104650574" cy="246.16" r="3"></circle><circle class="cat0" style="fill: rgb(20,20,250); opacity: 0.8;" cx="176.68281093816628" cy="222.445" r="3"></circle><circle class="cat0" style="fill: rgb(20,20,250); opacity: 0.8;" cx="168.4793926601772" cy="208.165" r="3"></circle><circle class="cat0" style="fill: rgb(20,20,250); opacity: 0.8;" cx="173.4890431353117" cy="223.125" r="3"></circle><circle class="cat0" style="fill: rgb(20,20,250); opacity: 0.8;" cx="203.80584187245907" cy="163.88" r="3"></circle><circle class="cat0" style="fill: rgb(20,20,250); opacity: 0.8;" cx="168.3881129618984" cy="224.39999999999998" r="3"></circle><circle class="cat0" style="fill: rgb(20,20,250); opacity: 0.8;" cx="174.482868035413" cy="208.76" r="3"></circle><circle class="cat0" style="fill: rgb(20,20,250); opacity: 0.8;" cx="247.00200221534527" cy="100.64000000000001" r="3"></circle><circle class="cat0" style="fill: rgb(20,20,250); opacity: 0.8;" cx="249.17594660774884" cy="185.725" r="3"></circle><circle class="cat0" style="fill: rgb(20,20,250); opacity: 0.8;" cx="249.73759550604817" cy="204" r="3"></circle><circle class="cat0" style="fill: rgb(20,20,250); opacity: 0.8;" cx="248.17763454509222" cy="164.56" r="3"></circle><circle class="cat0" style="fill: rgb(20,20,250); opacity: 0.8;" cx="246.93401294712788" cy="214.88" r="3"></circle><circle class="cat0" style="fill: rgb(20,20,250); opacity: 0.8;" cx="247.69990430196444" cy="150.365" r="3"></circle><circle class="cat0" style="fill: rgb(20,20,250); opacity: 0.8;" cx="250.26976019795538" cy="124.52499999999999" r="3"></circle><circle class="cat0" style="fill: rgb(20,20,250); opacity: 0.8;" cx="249.32843025542581" cy="200.60000000000002" r="3"></circle><circle class="cat0" style="fill: rgb(20,20,250); opacity: 0.8;" cx="249.98547407771306" cy="168.045" r="3"></circle><circle class="cat0" style="fill: rgb(20,20,250); opacity: 0.8;" cx="176.74905324551875" cy="225.165" r="3"></circle><circle class="cat0" style="fill: rgb(20,20,250); opacity: 0.8;" cx="169.08453556881486" cy="204.765" r="3"></circle><circle class="cat0" style="fill: rgb(20,20,250); opacity: 0.8;" cx="178.82789249263482" cy="136" r="3"></circle><circle class="cat0" style="fill: rgb(20,20,250); opacity: 0.8;" cx="175.79937571701615" cy="175.44" r="3"></circle><circle class="cat0" style="fill: rgb(20,20,250); opacity: 0.8;" cx="180.24986928347923" cy="163.96499999999997" r="3"></circle><circle class="cat0" style="fill: rgb(20,20,250); opacity: 0.8;" cx="175.56438858401967" cy="174.165" r="3"></circle><circle class="cat0" style="fill: rgb(20,20,250); opacity: 0.8;" cx="173.97853104621268" cy="208.07999999999998" r="3"></circle><circle class="cat0" style="fill: rgb(20,20,250); opacity: 0.8;" cx="173.00565856117612" cy="189.805" r="3"></circle><circle class="cat0" style="fill: rgb(20,20,250); opacity: 0.8;" cx="171.35935713009735" cy="197.88000000000002" r="3"></circle><circle class="cat0" style="fill: rgb(20,20,250); opacity: 0.8;" cx="100.32678685532662" cy="241.39999999999998" r="3"></circle><circle class="cat0" style="fill: rgb(20,20,250); opacity: 0.8;" cx="105.88079661551895" cy="163.96499999999997" r="3"></circle><circle class="cat0" style="fill: rgb(20,20,250); opacity: 0.8;" cx="108.17256722231868" cy="191.84499999999997" r="3"></circle><circle class="cat0" style="fill: rgb(20,20,250); opacity: 0.8;" cx="107.95297742962488" cy="255.765" r="3"></circle><circle class="cat0" style="fill: rgb(20,20,250); opacity: 0.8;" cx="101.81129716381574" cy="252.96" r="3"></circle><circle class="cat0" style="fill: rgb(20,20,250); opacity: 0.8;" cx="116.97870634071607" cy="263.925" r="3"></circle><circle class="cat0" style="fill: rgb(20,20,250); opacity: 0.8;" cx="104.57202956280395" cy="251.6" r="3"></circle><circle class="cat0" style="fill: rgb(20,20,250); opacity: 0.8;" cx="102.8714182116143" cy="232.645" r="3"></circle><circle class="cat0" style="fill: rgb(20,20,250); opacity: 0.8;" cx="115.3748670415708" cy="247.60500000000002" r="3"></circle><circle class="cat0" style="fill: rgb(20,20,250); opacity: 0.8;" cx="35.656399347726826" cy="244.205" r="3"></circle><circle class="cat0" style="fill: rgb(20,20,250); opacity: 0.8;" cx="42.32532245246672" cy="261.12" r="3"></circle><circle class="cat0" style="fill: rgb(20,20,250); opacity: 0.8;" cx="60.78802099622466" cy="268.005" r="3"></circle><circle class="cat0" style="fill: rgb(20,20,250); opacity: 0.8;" cx="50.371883011510945" cy="291.71999999999997" r="3"></circle><circle class="cat0" style="fill: rgb(20,20,250); opacity: 0.8;" cx="47.28501144959894" cy="320.96" r="3"></circle><circle class="cat0" style="fill: rgb(20,20,250); opacity: 0.8;" cx="11.043825297174019" cy="229.15999999999997" r="3"></circle><circle class="cat0" style="fill: rgb(20,20,250); opacity: 0.8;" cx="35.872437135275895" cy="266.56" r="3"></circle><circle class="cat0" style="fill: rgb(20,20,250); opacity: 0.8;" cx="75.87762196314227" cy="264.605" r="3"></circle><circle class="cat0" style="fill: rgb(20,20,250); opacity: 0.8;" cx="72.12885558089671" cy="270.725" r="3"></circle></g></svg>